<svg xmlns="http://www.w3.org/2000/svg" width="74" height="74" fill="none" viewBox="0 0 74 74"><rect width="74" height="74" fill="#3c2128" rx="10"/><g clip-path="url(#a)"><circle cx="37" cy="37" r="20" fill="#fe5784"/><circle cx="37" cy="37" r="18" fill="#3c2128"/><circle cx="37" cy="37" r="15" fill="#fe5784"/><path stroke="#3c2128" stroke-width="2" d="M37 24v28M53 37H21M48.73 25.305 25.113 49.763M49.158 49.569 25.539 25.111"/><path fill="#fe5784" stroke="#3c2128" stroke-width="3" d="M35.218 22.821c.814 1.317 2.75 1.317 3.564 0l.077-.136 3.338-6.359c.734-1.398-.28-3.076-1.86-3.076h-6.675c-1.579 0-2.593 1.678-1.86 3.076l3.339 6.359z"/><circle cx="37" cy="37" r="5" fill="#3c2128"/><circle cx="37" cy="37" r="3" fill="#fe5784"/></g><defs><clipPath id="a"><path fill="#fff" d="M15 15h43v43H15z"/></clipPath></defs></svg>