<svg xmlns="http://www.w3.org/2000/svg" width="440" height="392" fill="none" viewBox="0 0 440 392"><path fill="#ff7a9d" d="m115.402 154.979-36.722 27.97 48.614-22.376-2.798 7.692 5.246-2.797 31.476 97.894 25.531-17.131-8.393-1.049-15.039-12.936 13.989-19.579-41.968-53.492-9.443-2.447z"/><path fill="#ffa7be" d="m162.967 232.246 49.663-68.177-9.443 54.891 136.748 45.451-161.579-19.229zM119.25 31.913l6.295 124.814 9.793 2.448 30.777 39.157 18.536-12.936zM83.226 185.396l-4.546-2.447 48.963-22.725-3.147 8.041z"/><path fill="#ec436f" d="m175.908 214.415-9.793-16.083 46.166-31.816zM152.475 253.223l-30.427-83.91 7.694-3.845 28.329 87.755zM250.402 198.332l-4.197-2.797 114.715-89.503-88.135 93.699z"/><path fill="url(#a)" d="M183.602 186.445 119.25 31.913l110.168 107.683 1.049 43.003-18.536-15.733z"/><path fill="url(#b)" d="m202.488 219.659 9.443-52.793 38.472 31.466z"/><path fill="url(#c)" d="m250.403 198.332-47.915 21.327 137.448 45.101-58.756-64.68z"/><path fill="url(#d)" d="m162.617 232.596 49.313-65.729-9.093 52.443 137.098 45.451-161.929-19.579z"/><path fill="url(#e)" d="M183.952 186.096 119.25 31.913l6.295 124.814 9.793 2.448 30.777 39.157z"/><path fill="url(#f)" d="M98.545 343.928c2.493-.128 4.218-.384 4.218-3.772v-23.844h-4.538v-.319c1.534 0 3.004-.064 4.538-.192v-5.05c0-12.465 10.995-13.68 14.575-13.68 5.753 0 9.653 3.26 9.653 6.84 0 2.173-1.47 5.114-5.178 5.114-3.196 0-5.114-2.237-5.114-5.05 0-2.877 2.046-4.539 3.835-5.434a4.4 4.4 0 0 0-2.62-.831c-4.795 0-4.795 5.498-4.795 10.74v7.223h10.356v.639h-10.356v23.844c0 3.388 3.069 3.644 6.329 3.772v.511c-2.238-.064-19.178-.064-20.903 0zm44.75-18.794c0-4.155-.447-9.717-4.986-9.717-2.045 0-3.963 1.023-5.625 2.43 1.79.447 3.644 2.109 3.644 4.794 0 2.813-2.11 5.114-5.114 5.114s-4.986-2.301-4.986-5.114c0-3.963 4.027-7.927 14.51-7.927 12.913 0 12.913 6.009 12.913 11.826v12.785c0 3.132 1.982 4.027 4.858 4.091v.512c-2.62-.128-12.976.703-14.766 1.022h-.448v-5.497c-1.598 1.918-5.05 5.497-9.396 5.497-2.238 0-7.799-.767-7.799-6.839 0-7.224 7.799-8.502 17.195-10.037zm-6.584 10.675c0 3.58.895 4.731 3.005 4.731.959 0 1.79-.192 3.579-1.918v-9.908c-6.008 1.086-6.584 4.155-6.584 7.095m23.693 8.119c2.493-.128 4.219-.384 4.219-3.772v-38.035c0-3.132-1.981-4.027-4.858-4.091v-.511c2.621.127 12.977-.704 14.766-1.023h.448v43.66c0 3.388 1.726 3.644 4.219 3.772v.511c-1.726-.064-17.068-.064-18.794 0zm21.1 0c2.493-.128 4.219-.384 4.219-3.772v-38.035c0-3.132-1.982-4.027-4.858-4.091v-.511c2.621.127 12.977-.704 14.766-1.023h.448v43.66c0 3.388 1.726 3.644 4.219 3.772v.511c-1.726-.064-17.068-.064-18.794 0zm36.57 1.022c-7.863 0-14.703-5.305-14.703-15.086 0-9.588 6.648-15.214 15.214-15.214 7.671 0 11.443 4.859 11.443 10.42v.639h-16.109c-.064.639-.064 1.279-.064 1.918 0 11.634 4.219 13.744 8.246 13.744 3.899 0 6.84-1.535 8.758-5.05l.383.255c-2.621 4.795-6.328 8.374-13.168 8.374m-4.155-19.88 5.433-.256c.703-.064 1.087-.128 1.087-2.045 0-3.26-1.023-7.479-2.813-7.479s-3.388 3.771-3.707 9.78m30.447 19.88c-6.968 0-6.968-5.753-6.968-9.333v-19.305h-4.091v-.639h4.091v-2.621c3.261-1.086 7.48-3.068 9.845-5.497h.511v8.118h8.566l-.064.639h-8.502v17.771c0 5.434.192 7.096 1.662 7.096 1.534 0 3.196-2.621 4.155-5.689l.448.191c-.831 2.877-2.238 9.269-9.653 9.269m24.409 0c-6.968 0-6.968-5.753-6.968-9.333v-19.305h-4.091v-.639h4.091v-2.621c3.26-1.086 7.479-3.068 9.844-5.497h.512v8.118h8.566l-.064.639h-8.502v17.771c0 5.434.191 7.096 1.662 7.096 1.534 0 3.196-2.621 4.155-5.689l.447.191c-.831 2.877-2.237 9.269-9.652 9.269m28.705 0c-7.863 0-14.703-5.305-14.703-15.086 0-9.588 6.648-15.214 15.214-15.214 7.671 0 11.442 4.859 11.442 10.42v.639h-16.108c-.064.639-.064 1.279-.064 1.918 0 11.634 4.219 13.744 8.246 13.744 3.899 0 6.84-1.535 8.758-5.05l.383.255c-2.621 4.795-6.328 8.374-13.168 8.374m-4.155-19.88 5.433-.256c.703-.064 1.087-.128 1.087-2.045 0-3.26-1.023-7.479-2.813-7.479s-3.388 3.771-3.707 9.78m19.516 18.858c2.493-.128 4.858-.384 4.858-3.772v-19.88c0-3.133-1.981-4.028-4.858-4.091v-.512c2.621.128 12.977-.703 14.766-1.023h.448v5.114h.128c2.365-2.109 5.561-5.178 9.013-5.178 2.941 0 4.922 2.11 4.922 4.795s-2.045 5.433-5.114 5.433c-2.045 0-4.858-1.15-5.753-6.073-.959.384-1.981 1.023-3.196 1.918v19.497c0 3.388 2.365 3.644 6.137 3.772v.511c-3.005-.064-19.625-.064-21.351 0z"/><defs><linearGradient id="a" x1="244.107" x2="146.89" y1="82.608" y2="124.586" gradientUnits="userSpaceOnUse"><stop stop-color="#ff9bbb"/><stop offset="1" stop-color="#ff507f"/></linearGradient><linearGradient id="b" x1="286.426" x2="195.145" y1="188.893" y2="174.898" gradientUnits="userSpaceOnUse"><stop stop-color="#ff9bbb"/><stop offset="1" stop-color="#ff507f"/></linearGradient><linearGradient id="c" x1="321.05" x2="202.231" y1="185.396" y2="219.006" gradientUnits="userSpaceOnUse"><stop stop-color="#ff9bbb"/><stop offset="1" stop-color="#ff507f"/></linearGradient><linearGradient id="d" x1="243.057" x2="150.742" y1="184.697" y2="238.916" gradientUnits="userSpaceOnUse"><stop stop-color="#ff9bbb"/><stop offset="1" stop-color="#ff507f"/></linearGradient><linearGradient id="e" x1="151.601" x2="165.057" y1="32.262" y2="239.588" gradientUnits="userSpaceOnUse"><stop stop-color="#ff9bbb"/><stop offset="1" stop-color="#ff507f"/></linearGradient><linearGradient id="f" x1="342.853" x2="96.745" y1="322.704" y2="322.704" gradientUnits="userSpaceOnUse"><stop stop-color="#ff507f"/><stop offset="1" stop-color="#ff9bbb"/></linearGradient></defs></svg>