<svg xmlns="http://www.w3.org/2000/svg" width="74" height="74" fill="none" viewBox="0 0 74 74"><rect width="74" height="74" fill="#3c2128" rx="10"/><path fill="#fe5784" stroke="#fe5784" stroke-linecap="round" stroke-linejoin="round" stroke-width="3.413" d="M44.306 52.84v-3.414A6.827 6.827 0 0 0 37.48 42.6H27.24a6.827 6.827 0 0 0-6.827 6.826v3.414zM44.306 22.759c1.814.32 2.76.813 3.686 2.01a6.83 6.83 0 0 1 0 8.355c-.925 1.196-1.872 1.8-3.686 2.115-1.706 0-1.848-.11-2.346-.32 2.492-4.154 2.492-8.485 0-11.84-.32 0 .96-.565 2.346-.32M54.547 52.84v-3.414a6.83 6.83 0 0 0-5.12-6.605c-.747 0-1.323-.078-2.347 0C49.64 46.44 49 50.28 49 52.84zM39.187 28.946a6.827 6.827 0 1 1-13.654 0 6.827 6.827 0 0 1 13.654 0"/></svg>