<svg width="59" height="61" viewBox="0 0 59 61" fill="none" xmlns="http://www.w3.org/2000/svg">
<rect width="33.5137" height="33.5137" transform="matrix(0.86651 0.49916 -0.86651 0.49916 29.04 5.75049)" fill="url(#paint0_linear_1_1507)"/>
<rect width="33.5137" height="21.7473" transform="matrix(0.86651 0.49916 0 1 0 22.4792)" fill="#FF7A9D"/>
<rect width="33.5137" height="21.7473" transform="matrix(0.86651 -0.49916 0 1 29.04 39.2079)" fill="#EC436F"/>
<circle cx="5.76018" cy="5.76018" r="5.76018" transform="matrix(0.86651 0.49916 -0.86651 0.49916 29.002 0)" fill="url(#paint1_linear_1_1507)"/>
<path d="M21.9434 5.75049C21.9434 6.87335 22.7334 7.8899 24.0108 8.62574V16.1014C22.7334 15.3655 21.9434 14.349 21.9434 13.2261V5.75049Z" fill="#FF7A9D"/>
<path d="M24.0107 8.62574C26.7673 10.2137 31.2366 10.2137 33.9932 8.62574V16.1014C31.2366 17.6893 26.7673 17.6893 24.0107 16.1014V8.62574Z" fill="#EC436F"/>
<path d="M36.0606 5.75049C36.0606 6.87335 35.2705 7.8899 33.9932 8.62574V16.1014C35.2705 15.3655 36.0606 14.349 36.0606 13.2261V5.75049Z" fill="#EC436F"/>
<circle cx="5.76018" cy="5.76018" r="5.76018" transform="matrix(0.86651 0.49916 -0.86651 0.49916 43.9863 8.62574)" fill="url(#paint2_linear_1_1507)"/>
<path d="M36.9277 14.3762C36.9277 15.4991 37.7178 16.5156 38.9952 17.2515V24.7271C37.7178 23.9913 36.9277 22.9747 36.9277 21.8519V14.3762Z" fill="#FF7A9D"/>
<path d="M38.9951 17.2515C41.7517 18.8394 46.221 18.8394 48.9776 17.2515V24.7271C46.221 26.3151 41.7517 26.3151 38.9951 24.7271V17.2515Z" fill="#EC436F"/>
<path d="M51.045 14.3762C51.045 15.4991 50.2549 16.5156 48.9775 17.2515V24.7271C50.2549 23.9913 51.045 22.9747 51.045 21.8519V14.3762Z" fill="#EC436F"/>
<circle cx="5.76018" cy="5.76018" r="5.76018" transform="matrix(0.86651 0.49916 -0.86651 0.49916 15.1699 8.62574)" fill="url(#paint3_linear_1_1507)"/>
<path d="M8.11133 14.3762C8.11133 15.4991 8.9014 16.5156 10.1788 17.2515V24.7271C8.9014 23.9913 8.11133 22.9747 8.11133 21.8519V14.3762Z" fill="#FF7A9D"/>
<path d="M10.1787 17.2515C12.9353 18.8394 17.4046 18.8394 20.1612 17.2515V24.7271C17.4046 26.3151 12.9353 26.3151 10.1787 24.7271V17.2515Z" fill="#EC436F"/>
<path d="M22.2286 14.3762C22.2286 15.4991 21.4385 16.5156 20.1611 17.2515V24.7271C21.4385 23.9913 22.2286 22.9747 22.2286 21.8519V14.3762Z" fill="#EC436F"/>
<circle cx="5.76018" cy="5.76018" r="5.76018" transform="matrix(0.86651 0.49916 -0.86651 0.49916 29.002 17.2515)" fill="url(#paint4_linear_1_1507)"/>
<path d="M21.9434 23.002C21.9434 24.1248 22.7334 25.1414 24.0108 25.8772V33.3529C22.7334 32.617 21.9434 31.6005 21.9434 30.4776V23.002Z" fill="#FF7A9D"/>
<path d="M24.0107 25.8772C26.7673 27.4652 31.2366 27.4652 33.9932 25.8772V33.3529C31.2366 34.9408 26.7673 34.9408 24.0107 33.3529V25.8772Z" fill="#EC436F"/>
<path d="M36.0606 23.002C36.0606 24.1248 35.2705 25.1414 33.9932 25.8772V33.3529C35.2705 32.617 36.0606 31.6005 36.0606 30.4776V23.002Z" fill="#EC436F"/>
<defs>
<linearGradient id="paint0_linear_1_1507" x1="16.7569" y1="0" x2="16.7569" y2="33.5137" gradientUnits="userSpaceOnUse">
<stop stop-color="#FF9BBB"/>
<stop offset="1" stop-color="#FF507F"/>
</linearGradient>
<linearGradient id="paint1_linear_1_1507" x1="5.76018" y1="0" x2="5.76018" y2="11.5204" gradientUnits="userSpaceOnUse">
<stop stop-color="#FF9BBB"/>
<stop offset="1" stop-color="#FF507F"/>
</linearGradient>
<linearGradient id="paint2_linear_1_1507" x1="5.76018" y1="0" x2="5.76018" y2="11.5204" gradientUnits="userSpaceOnUse">
<stop stop-color="#FF9BBB"/>
<stop offset="1" stop-color="#FF507F"/>
</linearGradient>
<linearGradient id="paint3_linear_1_1507" x1="5.76018" y1="0" x2="5.76018" y2="11.5204" gradientUnits="userSpaceOnUse">
<stop stop-color="#FF9BBB"/>
<stop offset="1" stop-color="#FF507F"/>
</linearGradient>
<linearGradient id="paint4_linear_1_1507" x1="5.76018" y1="0" x2="5.76018" y2="11.5204" gradientUnits="userSpaceOnUse">
<stop stop-color="#FF9BBB"/>
<stop offset="1" stop-color="#FF507F"/>
</linearGradient>
</defs>
</svg>
