<svg xmlns="http://www.w3.org/2000/svg" width="224" height="257" fill="none" viewBox="0 0 224 257"><path fill="#ff7a9d" d="m194 0 6.364 23.636L224 30l-23.636 6.364L194 60l-6.364-23.636L164 30l23.636-6.364z"/><path fill="#000" fill-opacity=".2" d="m194 0 6.364 23.636L224 30l-23.636 6.364L194 60l-6.364-23.636L164 30l23.636-6.364z"/><path fill="#ff7a9d" d="m10 211 2.121 7.879L20 221l-7.879 2.121L10 231l-2.121-7.879L0 221l7.879-2.121z"/><path fill="#000" fill-opacity=".2" d="m10 211 2.121 7.879L20 221l-7.879 2.121L10 231l-2.121-7.879L0 221l7.879-2.121z"/><path fill="#ff7a9d" d="m30 217 4.243 15.757L50 237l-15.757 4.243L30 257l-4.243-15.757L10 237l15.757-4.243z"/><path fill="#000" fill-opacity=".2" d="m30 217 4.243 15.757L50 237l-15.757 4.243L30 257l-4.243-15.757L10 237l15.757-4.243z"/><path fill="url(#a)" d="M0 0h91.195v91.195H0z" transform="matrix(.86628 .49956 -.86628 .49956 105 75.66)"/><path fill="#ff7a9d" d="m26 121.218 79 45.558V226l-79-45.558z"/><path fill="#ec436f" d="m105 166.775 79-45.558v59.225L105 226z"/><circle cx="15.674" cy="15.674" r="15.674" fill="url(#b)" transform="matrix(.86628 .49956 -.86628 .49956 104.896 60)"/><path fill="#ff7a9d" d="M85.693 75.66c0 3.058 2.15 5.827 5.625 7.83v20.359c-3.475-2.004-5.625-4.772-5.625-7.83z"/><path fill="#ec436f" d="M91.318 83.49c7.499 4.325 19.657 4.325 27.156 0v20.359c-7.499 4.325-19.657 4.325-27.156 0zM124.098 75.66c0 3.058-2.149 5.827-5.624 7.83v20.359c3.475-2.004 5.624-4.772 5.624-7.83z"/><circle cx="15.674" cy="15.674" r="15.674" fill="url(#c)" transform="matrix(.86628 .49956 -.86628 .49956 145.66 83.49)"/><path fill="#ff7a9d" d="M126.458 99.15c0 3.059 2.149 5.827 5.624 7.831v20.359c-3.475-2.004-5.624-4.773-5.624-7.831z"/><path fill="#ec436f" d="M132.082 106.981c7.499 4.325 19.658 4.325 27.157 0v20.359c-7.499 4.324-19.658 4.324-27.157 0z"/><path fill="#ec436f" d="M164.863 99.15c0 3.059-2.15 5.827-5.625 7.831v20.359c3.475-2.004 5.625-4.773 5.625-7.831z"/><circle cx="15.674" cy="15.674" r="15.674" fill="url(#d)" transform="matrix(.86628 .49956 -.86628 .49956 67.267 83.49)"/><path fill="#ff7a9d" d="M48.065 99.15c0 3.059 2.149 5.827 5.624 7.831v20.359c-3.475-2.004-5.624-4.773-5.624-7.831z"/><path fill="#ec436f" d="M53.69 106.981c7.498 4.325 19.656 4.325 27.155 0v20.359c-7.499 4.324-19.657 4.324-27.156 0zM86.47 99.15c0 3.059-2.15 5.827-5.625 7.831v20.359c3.475-2.004 5.624-4.773 5.624-7.831z"/><circle cx="15.674" cy="15.674" r="15.674" fill="url(#e)" transform="matrix(.86628 .49956 -.86628 .49956 104.896 106.981)"/><path fill="#ff7a9d" d="M85.693 122.642c0 3.057 2.15 5.826 5.625 7.83v20.358c-3.475-2.004-5.625-4.772-5.625-7.83z"/><path fill="#ec436f" d="M91.318 130.472c7.499 4.324 19.657 4.324 27.156 0v20.358c-7.499 4.325-19.657 4.325-27.156 0zM124.098 122.642c0 3.057-2.149 5.826-5.624 7.83v20.358c3.475-2.004 5.624-4.772 5.624-7.83z"/><defs><linearGradient id="a" x1="45.597" x2="45.597" y1="0" y2="91.195" gradientUnits="userSpaceOnUse"><stop stop-color="#ff9bbb"/><stop offset="1" stop-color="#ff507f"/></linearGradient><linearGradient id="b" x1="15.674" x2="15.674" y1="0" y2="31.348" gradientUnits="userSpaceOnUse"><stop stop-color="#ff9bbb"/><stop offset="1" stop-color="#ff507f"/></linearGradient><linearGradient id="c" x1="15.674" x2="15.674" y1="0" y2="31.348" gradientUnits="userSpaceOnUse"><stop stop-color="#ff9bbb"/><stop offset="1" stop-color="#ff507f"/></linearGradient><linearGradient id="d" x1="15.674" x2="15.674" y1="0" y2="31.348" gradientUnits="userSpaceOnUse"><stop stop-color="#ff9bbb"/><stop offset="1" stop-color="#ff507f"/></linearGradient><linearGradient id="e" x1="15.674" x2="15.674" y1="0" y2="31.348" gradientUnits="userSpaceOnUse"><stop stop-color="#ff9bbb"/><stop offset="1" stop-color="#ff507f"/></linearGradient></defs></svg>