<svg width="224" height="257" viewBox="0 0 224 257" fill="none" xmlns="http://www.w3.org/2000/svg">
<path d="M194 0L200.364 23.636L224 30L200.364 36.364L194 60L187.636 36.364L164 30L187.636 23.636L194 0Z" fill="#FF7A9D"/>
<path d="M194 0L200.364 23.636L224 30L200.364 36.364L194 60L187.636 36.364L164 30L187.636 23.636L194 0Z" fill="black" fill-opacity="0.2"/>
<path d="M10 211L12.1213 218.879L20 221L12.1213 223.121L10 231L7.87868 223.121L0 221L7.87868 218.879L10 211Z" fill="#FF7A9D"/>
<path d="M10 211L12.1213 218.879L20 221L12.1213 223.121L10 231L7.87868 223.121L0 221L7.87868 218.879L10 211Z" fill="black" fill-opacity="0.2"/>
<path d="M30 217L34.2426 232.757L50 237L34.2426 241.243L30 257L25.7574 241.243L10 237L25.7574 232.757L30 217Z" fill="#FF7A9D"/>
<path d="M30 217L34.2426 232.757L50 237L34.2426 241.243L30 257L25.7574 241.243L10 237L25.7574 232.757L30 217Z" fill="black" fill-opacity="0.2"/>
<rect width="91.1947" height="91.1947" transform="matrix(0.866278 0.499562 -0.866278 0.499562 105 75.6604)" fill="url(#paint0_linear_53_540)"/>
<rect width="91.1947" height="59.2247" transform="matrix(0.866278 0.499562 0 1 26 121.218)" fill="#FF7A9D"/>
<rect width="91.1947" height="59.2247" transform="matrix(0.866278 -0.499562 0 1 105 166.775)" fill="#EC436F"/>
<circle cx="15.6741" cy="15.6741" r="15.6741" transform="matrix(0.866278 0.499562 -0.866278 0.499562 104.896 60)" fill="url(#paint1_linear_53_540)"/>
<path d="M85.6934 75.6604C85.6934 78.7182 87.8427 81.4866 91.3176 83.4906V103.849C87.8427 101.845 85.6934 99.0767 85.6934 96.0189V75.6604Z" fill="#FF7A9D"/>
<path d="M91.3177 83.4906C98.8167 87.8151 110.975 87.8151 118.474 83.4906V103.849C110.975 108.174 98.8167 108.174 91.3177 103.849V83.4906Z" fill="#EC436F"/>
<path d="M124.098 75.6604C124.098 78.7182 121.949 81.4866 118.474 83.4906V103.849C121.949 101.845 124.098 99.0767 124.098 96.0189V75.6604Z" fill="#EC436F"/>
<circle cx="15.6741" cy="15.6741" r="15.6741" transform="matrix(0.866278 0.499562 -0.866278 0.499562 145.66 83.4906)" fill="url(#paint2_linear_53_540)"/>
<path d="M126.458 99.1509C126.458 102.209 128.607 104.977 132.082 106.981V127.34C128.607 125.336 126.458 122.567 126.458 119.509V99.1509Z" fill="#FF7A9D"/>
<path d="M132.082 106.981C139.581 111.306 151.74 111.306 159.239 106.981V127.34C151.74 131.664 139.581 131.664 132.082 127.34V106.981Z" fill="#EC436F"/>
<path d="M164.863 99.1509C164.863 102.209 162.713 104.977 159.238 106.981V127.34C162.713 125.336 164.863 122.567 164.863 119.509V99.1509Z" fill="#EC436F"/>
<circle cx="15.6741" cy="15.6741" r="15.6741" transform="matrix(0.866278 0.499562 -0.866278 0.499562 67.2672 83.4906)" fill="url(#paint3_linear_53_540)"/>
<path d="M48.0647 99.1509C48.0647 102.209 50.214 104.977 53.6889 106.981V127.34C50.214 125.336 48.0647 122.567 48.0647 119.509V99.1509Z" fill="#FF7A9D"/>
<path d="M53.6891 106.981C61.1881 111.306 73.3463 111.306 80.8453 106.981V127.34C73.3463 131.664 61.1881 131.664 53.6891 127.34V106.981Z" fill="#EC436F"/>
<path d="M86.4695 99.1509C86.4695 102.209 84.3202 104.977 80.8452 106.981V127.34C84.3202 125.336 86.4695 122.567 86.4695 119.509V99.1509Z" fill="#EC436F"/>
<circle cx="15.6741" cy="15.6741" r="15.6741" transform="matrix(0.866278 0.499562 -0.866278 0.499562 104.896 106.981)" fill="url(#paint4_linear_53_540)"/>
<path d="M85.6934 122.642C85.6934 125.699 87.8427 128.468 91.3176 130.472V150.83C87.8427 148.826 85.6934 146.058 85.6934 143V122.642Z" fill="#FF7A9D"/>
<path d="M91.3177 130.472C98.8167 134.796 110.975 134.796 118.474 130.472V150.83C110.975 155.155 98.8167 155.155 91.3177 150.83V130.472Z" fill="#EC436F"/>
<path d="M124.098 122.642C124.098 125.699 121.949 128.468 118.474 130.472V150.83C121.949 148.826 124.098 146.058 124.098 143V122.642Z" fill="#EC436F"/>
<defs>
<linearGradient id="paint0_linear_53_540" x1="45.5974" y1="0" x2="45.5974" y2="91.1947" gradientUnits="userSpaceOnUse">
<stop stop-color="#FF9BBB"/>
<stop offset="1" stop-color="#FF507F"/>
</linearGradient>
<linearGradient id="paint1_linear_53_540" x1="15.6741" y1="0" x2="15.6741" y2="31.3482" gradientUnits="userSpaceOnUse">
<stop stop-color="#FF9BBB"/>
<stop offset="1" stop-color="#FF507F"/>
</linearGradient>
<linearGradient id="paint2_linear_53_540" x1="15.6741" y1="0" x2="15.6741" y2="31.3482" gradientUnits="userSpaceOnUse">
<stop stop-color="#FF9BBB"/>
<stop offset="1" stop-color="#FF507F"/>
</linearGradient>
<linearGradient id="paint3_linear_53_540" x1="15.6741" y1="0" x2="15.6741" y2="31.3482" gradientUnits="userSpaceOnUse">
<stop stop-color="#FF9BBB"/>
<stop offset="1" stop-color="#FF507F"/>
</linearGradient>
<linearGradient id="paint4_linear_53_540" x1="15.6741" y1="0" x2="15.6741" y2="31.3482" gradientUnits="userSpaceOnUse">
<stop stop-color="#FF9BBB"/>
<stop offset="1" stop-color="#FF507F"/>
</linearGradient>
</defs>
</svg>
