<svg width="24" height="24" viewBox="0 0 24 24" fill="none" xmlns="http://www.w3.org/2000/svg">
<path d="M7.93955 21.546C7.65834 21.2647 7.50037 20.8832 7.50037 20.4855C7.50037 20.0877 7.65834 19.7063 7.93955 19.425L15.3646 12L7.93955 4.57499C7.66631 4.29209 7.51512 3.91318 7.51854 3.51989C7.52196 3.12659 7.67971 2.75037 7.95782 2.47226C8.23594 2.19415 8.61215 2.0364 9.00545 2.03298C9.39874 2.02956 9.77765 2.18075 10.0605 2.45399L18.546 10.9395C18.8273 11.2208 18.9852 11.6022 18.9852 12C18.9852 12.3977 18.8273 12.7792 18.546 13.0605L10.0605 21.546C9.77926 21.8272 9.3978 21.9852 9.00005 21.9852C8.6023 21.9852 8.22084 21.8272 7.93955 21.546Z" fill="#F0F0F0"/>
</svg>
