<svg xmlns="http://www.w3.org/2000/svg" width="487" height="265" fill="none" viewBox="0 0 487 265"><path fill="#58c1f4" d="M103.482 64.28h5.32v3.96h-5.32v17.92h-4.48V49.64h4.48zm-14.4 9.48c1.72 1.92 4.24 3.72 6.32 4.72v4.8c-2.44-1.16-5.48-3.08-7.24-4.72-1.76-1.6-3.52-3.52-4.36-5.44-.68 1.92-2.92 4.6-4.64 6.04-1.8 1.64-4.52 3.52-6.92 4.52v-4.92c2.36-1.24 4.28-2.84 5.56-4.12 3.08-3.16 3.72-5.8 3.72-13.88v-5.08h-9.24v-3.96h23v3.96h-9.16v5.08c0 7.92.52 10.28 2.96 13M127.659 68.56c-9.68 0-15.6-3.56-15.6-9.32 0-5.84 5.92-9.44 15.6-9.44s15.6 3.6 15.6 9.44c0 5.76-5.92 9.32-15.6 9.32m0-14.84c-6.88 0-11 2.08-11 5.48 0 3.48 4.12 5.56 11 5.56s11-2.08 11-5.56c0-3.4-4.12-5.48-11-5.48m-17.44 18.08h34.88v3.96h-7.72v10.56h-4.48V75.76h-10.48v10.56h-4.48V75.76h-7.72zM167.517 65.84v2.92h15.2v3.52h-34.88v-3.52h15.2v-2.92h-12.28v-9.52h24.36v-2.6h-24.36V50.2h28.84v9.48h-24.36v2.64h24.8v3.52zm-12.6 11.04h20.72v-3h4.4v12.68h-29.56V73.88h4.44zm0 6.16h20.72v-2.8h-20.72zM215.614 86.16V49.64h4.36v36.52zm-14.48-21.96h5.56V49.72h4.36V86h-4.36V68.28h-5.72c-.44 5.12-2.12 8.04-6.12 11.12-2.08 1.56-5.84 3.16-8.68 3.92v-4.2c2.04-.68 4.2-1.64 6-2.88 3.12-2.2 4.56-4.6 4.56-11.4v-9.2h-10.52v-4h14.92zM265.871 86.16h-4.48V49.64h4.48zm-20.72-14.76c-6.52 0-11.28-4.2-11.28-10.32s4.76-10.36 11.28-10.36c6.56 0 11.28 4.24 11.28 10.36s-4.72 10.32-11.28 10.32m0-3.96c4.16 0 6.92-2.52 6.92-6.36 0-3.88-2.76-6.4-6.92-6.4s-6.92 2.52-6.92 6.4c0 3.84 2.76 6.36 6.92 6.36m14.08 14.8-26.16.2v-4.12h26.16zM299.048 58.88h-7.76c-.24 5.24-2.4 8.12-7.96 10.48-2.8 1.12-6.88 2.04-10.84 2.76v-3.96c3.16-.6 6.36-1.28 8.6-2.28 4.24-1.72 5.6-4.08 5.6-8v-2.92h-13.92v-3.88h18.56v4.04h7.72v-5.48h4.48V76.6h-4.48v-8.04h-9.12V64.8h9.12zm-19.4 14.88v8.48h24.72v3.84h-29.2V73.76zM325.745 62.68c-10.12 0-15.16-2.44-15.16-6.64 0-4.24 5.04-6.68 15.16-6.68s15.16 2.44 15.16 6.68c0 4.2-5.04 6.64-15.16 6.64m0-3.52c7.24 0 10.64-1.16 10.64-3.12 0-1.88-3.4-3.04-10.64-3.04-7.28 0-10.64 1.16-10.64 3.04 0 1.96 3.36 3.12 10.64 3.12m17.44 9.48h-34.88v-3.56h34.88zm-2.08 18.2h-30.24V77.4h25.24v-2.6h-25.24v-3.4h29.72v9.2h-25.24v2.72h25.76zM386.021 64.28h5.32v3.96h-5.32v17.92h-4.48V49.64h4.48zm-29.88-12.84h4.52v27.92l17.8-.32v3.76l-22.32.6zM399.438 62.92h25.96v3.96h-30.36V50.6h4.4zm-6.68 8.48h34.88v3.96h-15.2v10.96h-4.48V75.36h-15.2zM462.456 74.28h-4.36V55.64h-25.6v-4h30.08zm-14.4-8.84V80.6h17.2v3.96h-34.88V80.6h13.24V65.44zM470.593 87.8h-3.64l1.76-10.04h5.72zM32.2 136.4h-4.48v-16.12h-8.08v-3.84h8.08v-6.8h4.48zm-20.96-13.8c-.88 1.68-2.36 3.4-4.16 4.84A33.3 33.3 0 0 1 0 131.76v-4.8c1.96-.92 4-2.16 5.4-3.6 2.92-2.8 3.6-4.76 3.6-8.72v-4.16h4.48v4.16c0 3.48.6 5.56 2.88 7.76 1.84 1.8 3.96 3.08 6.04 4.08v4.6c-2.6-1.12-5.08-2.6-7.08-4.16-1.48-1.24-3.08-2.76-4.08-4.32m-3.8 10.52v9.12h25.6v3.84H2.96v-12.96zM56.777 112.64h13.92v3.84h-32.56v-3.84h13.92v-3.92h4.72zm-15.48 12.68c0-4.36 4.64-6.92 13.12-6.92 8.44 0 13.08 2.56 13.08 6.92 0 4.32-4.64 6.88-13.08 6.88-8.48 0-13.12-2.56-13.12-6.88m21.68 0c0-2.04-2.88-3.36-8.56-3.36-5.72 0-8.56 1.32-8.56 3.36 0 2.08 2.84 3.32 8.56 3.32 5.68 0 8.56-1.24 8.56-3.32m-26 9.2h34.88v3.8h-15.2v8h-4.48v-8h-15.2zM104.754 124.28v-14.64h4.36v36.52h-4.36v-17.92h-5.4V146h-4.36v-36.28h4.36v14.56zm-25.92-1.48h7.84v-11.72h4.28v32.04l-16.4.56v-32.6h4.28zm0 3.92v12.84l7.84-.12v-12.72zM153.052 109.64v11.24h5.16v3.96h-5.16v13.32h-4.48v-28.52zm-9.08 14.8h-4.4v-9.96h-16.36v-3.88h20.76zm-9.96 3.12h12.48v3.76l-24.68.2v-3.96h7.84v-7.76h4.36zm-9.72 7.04h4.48v7.64h25.28v3.84h-29.76zM189.989 146.16v-36.52h4.36v36.52zm-14.92-28.4h6v-8.04h4.36V146h-4.36v-11.32h-7.92c-.96 1.72-2.36 3.2-4.32 4.72-1.96 1.56-5.52 3.16-8.32 3.92v-4.16c1.96-.72 4.04-1.68 5.72-2.88 3.04-2.2 4.44-4.56 4.44-11.4v-9.24h-10.12v-4h14.52zm-.48 12.96h6.48v-9h-6v2.84c0 2.44-.16 4.44-.48 6.16M230.467 124.2h-29.36v-8.6h24.44v-2.28h-24.44v-3.24h28.92v8.56h-24.44V121h24.88zm2.64 5.64h-34.88v-3.36h34.88zm-2.16 16.88h-30.08v-8.88h25.08v-2.2h-25.08v-3.36h29.56V141h-25.08v2.32h25.6zM259.103 112.64h8.92v3.72h-22.56v-3.72h9.08v-3.88h4.56zm18.8 20.32h-4.36v-4.6h-5.28v-3.76h5.28v-4.08h-5.28v-3.8h5.28v-7.08h4.36zm-11.2-7.6c0 4.16-3.64 7.04-9.88 7.04s-9.88-2.88-9.88-7.04c0-4.2 3.72-7.12 9.88-7.12s9.88 2.92 9.88 7.12m-15.48 0c0 2.08 1.88 3.6 5.6 3.6s5.6-1.52 5.6-3.6c0-2.12-1.96-3.64-5.6-3.64s-5.6 1.52-5.6 3.64m12.6 8.48c9.8 0 14.8 2.24 14.8 6.64 0 4.36-5 6.56-14.8 6.56-9.84 0-14.84-2.2-14.84-6.56 0-4.4 5-6.64 14.84-6.64m0 9.52c6.88 0 10.2-.92 10.2-2.88 0-2-3.32-2.96-10.2-2.96-6.92 0-10.2.96-10.2 2.96 0 1.96 3.32 2.88 10.2 2.88M315.52 130.4h-4.48v-10.88h-8.08v-3.84h8.08v-6.04h4.48zm-20.88-9.04c-.92 1.52-2.4 3.12-4.2 4.48-2.32 1.72-4.72 3.04-7.12 4.08v-4.68c1.96-.88 4-2.04 5.44-3.36 2.96-2.6 3.64-4.44 3.64-8.12v-3.64h4.48v3.64c0 3.24.56 5.2 2.88 7.24 1.8 1.64 3.96 2.8 6.08 3.76v4.48c-2.64-1.04-5.16-2.4-7.16-3.88-1.48-1.12-3.08-2.56-4.04-4m6.08 10.08c10.08 0 15.16 2.72 15.16 7.84s-5.08 7.76-15.16 7.76-15.16-2.64-15.16-7.76 5.08-7.84 15.16-7.84m0 11.76c7.12 0 10.56-1.32 10.56-3.92s-3.4-4-10.56-4-10.56 1.4-10.56 4 3.4 3.92 10.56 3.92M334.138 112.04h9.199v3.56h-23.16v-3.56h9.401v-3.56h4.56zm17.039-2.4v7.68h5.081v3.96h-5.081v7.32h-4.359v-18.96zm-9.079 13.56c0 3.6-3.68 6-10.12 6s-10.081-2.4-10.081-6c0-3.56 3.721-5.96 10.081-5.96s10.12 2.4 10.12 5.96m-15.96 0c0 1.6 2 2.68 5.84 2.68 3.88 0 5.88-1.08 5.88-2.68s-2.08-2.64-5.88-2.64-5.84 1.04-5.84 2.64m25.12 17.12h-23.44v2.88h24.32v3.48h-28.801v-9.6h23.44v-2.68h-23.44v-3.36h27.921zM378.693 124.36c-2.64 1.52-6.68 3.28-10.08 4.16l-.04-4.44c3.2-.96 6.68-2.56 9.16-4.08 3.36-2.08 4.52-4.12 4.52-7.52v-2.44h4.64v2.44c0 3.48 1.12 5.24 3.96 7.16 1.92 1.28 6.08 3.32 9.68 4.52v4.32c-3.56-1-8.2-3.04-10.76-4.56-2.44-1.56-4.24-3.08-5.2-4.6-.92 1.56-2.92 3.32-5.88 5.04m-11.56 7.16h34.88v3.96h-15.2v10.84h-4.48v-10.84h-15.2zM442.329 109.64h4.48v20.32h-4.48zm-16.6 19.56c-6.32 0-10.76-4.04-10.76-9.68 0-5.6 4.44-9.6 10.76-9.6 6.36 0 10.8 4 10.8 9.6 0 5.64-4.44 9.68-10.8 9.68m0-15.52c-3.76 0-6.36 2.4-6.36 5.84 0 3.48 2.6 5.92 6.36 5.92s6.4-2.44 6.4-5.92c0-3.44-2.64-5.84-6.4-5.84m18.96 25.6c1.12 1.08 2.4 2.04 3.96 2.6v4.68c-1.8-.6-3.76-1.76-5-2.8s-2.44-2.36-3.12-3.56c-.76 1.36-1.88 2.68-3.08 3.72-1.4 1.2-3.16 2.28-4.44 2.8-1.44-.56-3.12-1.6-4.16-2.48-1.48-1.2-2.52-2.48-3.36-3.84-.52 1.12-1.72 2.44-3.16 3.72-1.08.92-2.92 2.12-5 2.92v-4.84c1.72-.72 2.92-1.6 3.92-2.64 1.4-1.52 2-3.24 2-5.52v-2.12h4.4v2.12c0 2.2.48 3.72 1.84 5.28.96 1.2 2.32 2.32 3.52 2.92 1.2-.64 2.56-1.76 3.52-2.96 1.36-1.52 1.76-3.08 1.76-5.24v-2.12h4.4v2.12c0 2.12.6 3.8 2 5.24M483.867 124.24h-29.32v-14.2h4.48v10.32h24.84zm2.6 7.68h-34.88v-3.96h34.88zm-2.08 14.12h-30.04v-11.56h4.6v7.68h25.44z"/><path fill="url(#a)" d="M256.207 171.44v6.32h-15.16v7.16h13.96v6.32h-13.96v12.4h-7.28v-32.2z"/><path fill="url(#b)" d="M290.567 203.64h-7.84l-2.04-5.96h-12.36l-2.12 5.96h-7.88l12.24-32.2h8.16zm-17.12-20.32-2.92 8.2h8.04l-2.84-8.2c-.44-1.24-.64-2.28-1.12-3.48-.44 1.2-.72 2.2-1.16 3.48"/><path fill="url(#c)" d="M316.244 203.64h-22.36v-32.2h7.28v25.6h15.08z"/><path fill="url(#d)" d="M342.846 203.64h-22.36v-32.2h7.28v25.6h15.08z"/><path fill="url(#e)" d="M354.367 190.28v6.76h16.16v6.6h-23.44v-32.2h23v6.32h-15.72v6.2h14.52v6.32z"/><path fill="url(#f)" d="M373.182 171.44h27.041v6.08h-9.881v26.12h-7.28v-26.12h-9.88z"/><path fill="url(#g)" d="M402.479 171.44h27.04v6.08h-9.88v26.12h-7.28v-26.12h-9.88z"/><path fill="url(#h)" d="M440.656 190.28v6.76h16.16v6.6h-23.44v-32.2h23v6.32h-15.72v6.2h14.52v6.32z"/><path fill="url(#i)" d="M486.912 203.6h-8l-5.88-10.76h-4.68v10.8h-7.28v-32.2h12.92c7.56 0 12.36 4.32 12.36 10.48 0 4.36-2.36 7.84-6.2 9.64zm-13.84-25.96h-4.72v8.96h4.72c4 0 5.92-1.8 5.92-4.64 0-2.68-1.84-4.32-5.92-4.32"/><path fill="#7a97ff" d="m104.156 222.096-14.312 10.931 18.946-8.745-1.09 3.006 2.045-1.093 12.267 38.258 9.951-6.695-3.272-.41-5.861-5.055 5.452-7.652-16.356-20.905-3.681-.957z"/><path fill="#8bd9ff" d="m122.694 252.293 19.355-26.644-3.68 21.452 53.296 17.762-62.974-7.515zM105.655 174l2.454 48.779 3.817.957 11.995 15.303 7.224-5.056zM91.616 233.983l-1.772-.956 19.083-8.881-1.227 3.142z"/><path fill="#6580e1" d="m127.737 245.324-3.816-6.285 17.992-12.434zM118.605 260.491l-11.859-32.793 2.999-1.503 11.041 34.296zM156.771 239.039l-1.636-1.093 44.709-34.979-34.35 36.619z"/><path fill="url(#j)" d="M130.736 234.393 105.655 174l42.937 42.084.409 16.806-7.224-6.148z"/><path fill="url(#k)" d="m138.097 247.374 3.68-20.632 14.994 12.297z"/><path fill="url(#l)" d="m156.771 239.039-18.674 8.335L191.665 265l-22.899-25.278z"/><path fill="url(#m)" d="m122.558 252.429 19.219-25.687-3.544 20.495L191.665 265l-63.11-7.652z"/><path fill="url(#n)" d="M130.872 234.257 105.655 174l2.454 48.779 3.817.957 11.995 15.303z"/><path fill="#58c1f4" d="m34.844 0 6.364 23.636L64.844 30l-23.636 6.364L34.844 60 28.48 36.364 4.844 30l23.636-6.364z"/><defs><linearGradient id="a" x1="-2.156" x2="487.844" y1="130" y2="130" gradientUnits="userSpaceOnUse"><stop offset=".212" stop-color="#0cdfe6"/><stop offset="1" stop-color="#93aaff"/></linearGradient><linearGradient id="b" x1="-2.156" x2="487.844" y1="130" y2="130" gradientUnits="userSpaceOnUse"><stop offset=".212" stop-color="#0cdfe6"/><stop offset="1" stop-color="#93aaff"/></linearGradient><linearGradient id="c" x1="-2.156" x2="487.844" y1="130" y2="130" gradientUnits="userSpaceOnUse"><stop offset=".212" stop-color="#0cdfe6"/><stop offset="1" stop-color="#93aaff"/></linearGradient><linearGradient id="d" x1="-2.156" x2="487.844" y1="130" y2="130" gradientUnits="userSpaceOnUse"><stop offset=".212" stop-color="#0cdfe6"/><stop offset="1" stop-color="#93aaff"/></linearGradient><linearGradient id="e" x1="-2.156" x2="487.844" y1="130" y2="130" gradientUnits="userSpaceOnUse"><stop offset=".212" stop-color="#0cdfe6"/><stop offset="1" stop-color="#93aaff"/></linearGradient><linearGradient id="f" x1="-2.156" x2="487.844" y1="130" y2="130" gradientUnits="userSpaceOnUse"><stop offset=".212" stop-color="#0cdfe6"/><stop offset="1" stop-color="#93aaff"/></linearGradient><linearGradient id="g" x1="-2.156" x2="487.844" y1="130" y2="130" gradientUnits="userSpaceOnUse"><stop offset=".212" stop-color="#0cdfe6"/><stop offset="1" stop-color="#93aaff"/></linearGradient><linearGradient id="h" x1="-2.156" x2="487.844" y1="130" y2="130" gradientUnits="userSpaceOnUse"><stop offset=".212" stop-color="#0cdfe6"/><stop offset="1" stop-color="#93aaff"/></linearGradient><linearGradient id="i" x1="-2.156" x2="487.844" y1="130" y2="130" gradientUnits="userSpaceOnUse"><stop offset=".212" stop-color="#0cdfe6"/><stop offset="1" stop-color="#93aaff"/></linearGradient><linearGradient id="j" x1="154.317" x2="116.395" y1="193.812" y2="210.142" gradientUnits="userSpaceOnUse"><stop stop-color="#86fbff"/><stop offset="1" stop-color="#93aaff"/></linearGradient><linearGradient id="k" x1="170.81" x2="135.23" y1="235.35" y2="229.91" gradientUnits="userSpaceOnUse"><stop stop-color="#86fbff"/><stop offset="1" stop-color="#93aaff"/></linearGradient><linearGradient id="l" x1="184.304" x2="137.977" y1="233.983" y2="247.052" gradientUnits="userSpaceOnUse"><stop stop-color="#86fbff"/><stop offset="1" stop-color="#93aaff"/></linearGradient><linearGradient id="m" x1="153.908" x2="117.879" y1="233.71" y2="254.813" gradientUnits="userSpaceOnUse"><stop stop-color="#86fbff"/><stop offset="1" stop-color="#93aaff"/></linearGradient><linearGradient id="n" x1="118.264" x2="123.537" y1="174.137" y2="255.16" gradientUnits="userSpaceOnUse"><stop stop-color="#86fbff"/><stop offset="1" stop-color="#93aaff"/></linearGradient></defs></svg>