<svg width="487" height="265" viewBox="0 0 487 265" fill="none" xmlns="http://www.w3.org/2000/svg">
<path d="M103.482 64.28H108.802V68.24H103.482V86.16H99.0022V49.64H103.482V64.28ZM89.0822 73.76C90.8022 75.68 93.3222 77.48 95.4022 78.48V83.28C92.9622 82.12 89.9222 80.2 88.1622 78.56C86.4022 76.96 84.6422 75.04 83.8022 73.12C83.1222 75.04 80.8822 77.72 79.1622 79.16C77.3622 80.8 74.6422 82.68 72.2422 83.68V78.76C74.6022 77.52 76.5222 75.92 77.8022 74.64C80.8822 71.48 81.5222 68.84 81.5222 60.76V55.68H72.2822V51.72H95.2822V55.68H86.1222V60.76C86.1222 68.68 86.6422 71.04 89.0822 73.76Z" fill="#58C1F4"/>
<path d="M127.659 68.56C117.979 68.56 112.059 65 112.059 59.24C112.059 53.4 117.979 49.8 127.659 49.8C137.339 49.8 143.259 53.4 143.259 59.24C143.259 65 137.339 68.56 127.659 68.56ZM127.659 53.72C120.779 53.72 116.659 55.8 116.659 59.2C116.659 62.68 120.779 64.76 127.659 64.76C134.539 64.76 138.659 62.68 138.659 59.2C138.659 55.8 134.539 53.72 127.659 53.72ZM110.219 71.8H145.099V75.76H137.379V86.32H132.899V75.76H122.419V86.32H117.939V75.76H110.219V71.8Z" fill="#58C1F4"/>
<path d="M167.517 65.84V68.76H182.717V72.28H147.837V68.76H163.037V65.84H150.757V56.32H175.117V53.72H150.757V50.2H179.597V59.68H155.237V62.32H180.037V65.84H167.517ZM154.917 76.88H175.637V73.88H180.037V86.56H150.477V73.88H154.917V76.88ZM154.917 83.04H175.637V80.24H154.917V83.04Z" fill="#58C1F4"/>
<path d="M215.614 86.16V49.64H219.974V86.16H215.614ZM201.134 64.2H206.694V49.72H211.054V86H206.694V68.28H200.974C200.534 73.4 198.854 76.32 194.854 79.4C192.774 80.96 189.014 82.56 186.174 83.32V79.12C188.214 78.44 190.374 77.48 192.174 76.24C195.294 74.04 196.734 71.64 196.734 64.84V55.64H186.214V51.64H201.134V64.2Z" fill="#58C1F4"/>
<path d="M265.871 86.16H261.391V49.64H265.871V86.16ZM245.151 71.4C238.631 71.4 233.871 67.2 233.871 61.08C233.871 54.96 238.631 50.72 245.151 50.72C251.711 50.72 256.431 54.96 256.431 61.08C256.431 67.2 251.711 71.4 245.151 71.4ZM245.151 67.44C249.311 67.44 252.071 64.92 252.071 61.08C252.071 57.2 249.311 54.68 245.151 54.68C240.991 54.68 238.231 57.2 238.231 61.08C238.231 64.92 240.991 67.44 245.151 67.44ZM259.231 82.24L233.071 82.44V78.32H259.231V82.24Z" fill="#58C1F4"/>
<path d="M299.048 58.88H291.288C291.048 64.12 288.888 67 283.328 69.36C280.528 70.48 276.448 71.4 272.488 72.12V68.16C275.648 67.56 278.848 66.88 281.088 65.88C285.328 64.16 286.688 61.8 286.688 57.88V54.96H272.768V51.08H291.328V55.12H299.048V49.64H303.528V76.6H299.048V68.56H289.928V64.8H299.048V58.88ZM279.648 73.76V82.24H304.368V86.08H275.168V73.76H279.648Z" fill="#58C1F4"/>
<path d="M325.745 62.68C315.625 62.68 310.585 60.24 310.585 56.04C310.585 51.8 315.625 49.36 325.745 49.36C335.865 49.36 340.905 51.8 340.905 56.04C340.905 60.24 335.865 62.68 325.745 62.68ZM325.745 59.16C332.985 59.16 336.385 58 336.385 56.04C336.385 54.16 332.985 53 325.745 53C318.465 53 315.105 54.16 315.105 56.04C315.105 58 318.465 59.16 325.745 59.16ZM343.185 68.64H308.305V65.08H343.185V68.64ZM341.105 86.84H310.865V77.4H336.105V74.8H310.865V71.4H340.585V80.6H315.345V83.32H341.105V86.84Z" fill="#58C1F4"/>
<path d="M386.021 64.28H391.341V68.24H386.021V86.16H381.541V49.64H386.021V64.28ZM356.141 51.44H360.661V79.36L378.461 79.04V82.8L356.141 83.4V51.44Z" fill="#58C1F4"/>
<path d="M399.438 62.92H425.398V66.88H395.038V50.6H399.438V62.92ZM392.758 71.4H427.638V75.36H412.438V86.32H407.958V75.36H392.758V71.4Z" fill="#58C1F4"/>
<path d="M462.456 74.28H458.096V55.64H432.496V51.64H462.576L462.456 74.28ZM448.056 65.44V80.6H465.256V84.56H430.376V80.6H443.616V65.44H448.056Z" fill="#58C1F4"/>
<path d="M470.593 87.8H466.953L468.713 77.76H474.433L470.593 87.8Z" fill="#58C1F4"/>
<path d="M32.2 136.4H27.72V120.28H19.64V116.44H27.72V109.64H32.2V136.4ZM11.24 122.6C10.36 124.28 8.88 126 7.08 127.44C4.76 129.28 2.4 130.68 0 131.76V126.96C1.96 126.04 4 124.8 5.4 123.36C8.32 120.56 9 118.6 9 114.64V110.48H13.48V114.64C13.48 118.12 14.08 120.2 16.36 122.4C18.2 124.2 20.32 125.48 22.4 126.48V131.08C19.8 129.96 17.32 128.48 15.32 126.92C13.84 125.68 12.24 124.16 11.24 122.6ZM7.44 133.12V142.24H33.04V146.08H2.96V133.12H7.44Z" fill="#58C1F4"/>
<path d="M56.7772 112.64H70.6972V116.48H38.1372V112.64H52.0572V108.72H56.7772V112.64ZM41.2972 125.32C41.2972 120.96 45.9372 118.4 54.4172 118.4C62.8572 118.4 67.4972 120.96 67.4972 125.32C67.4972 129.64 62.8572 132.2 54.4172 132.2C45.9372 132.2 41.2972 129.64 41.2972 125.32ZM62.9772 125.32C62.9772 123.28 60.0972 121.96 54.4172 121.96C48.6972 121.96 45.8572 123.28 45.8572 125.32C45.8572 127.4 48.6972 128.64 54.4172 128.64C60.0972 128.64 62.9772 127.4 62.9772 125.32ZM36.9772 134.52H71.8572V138.32H56.6572V146.32H52.1772V138.32H36.9772V134.52Z" fill="#58C1F4"/>
<path d="M104.754 124.28V109.64H109.114V146.16H104.754V128.24H99.3544V146H94.9944V109.72H99.3544V124.28H104.754ZM78.8344 122.8H86.6744V111.08H90.9544V143.12L74.5544 143.68V111.08H78.8344V122.8ZM78.8344 126.72V139.56L86.6744 139.44V126.72H78.8344Z" fill="#58C1F4"/>
<path d="M153.052 109.64V120.88H158.212V124.84H153.052V138.16H148.572V109.64H153.052ZM143.972 124.44H139.572V114.48H123.212V110.6H143.972V124.44ZM134.012 127.56H146.492V131.32L121.812 131.52V127.56H129.652V119.8H134.012V127.56ZM124.292 134.6H128.772V142.24H154.052V146.08H124.292V134.6Z" fill="#58C1F4"/>
<path d="M189.989 146.16V109.64H194.349V146.16H189.989ZM175.069 117.76H181.069V109.72H185.429V146H181.069V134.68H173.149C172.189 136.4 170.789 137.88 168.829 139.4C166.869 140.96 163.309 142.56 160.509 143.32V139.16C162.469 138.44 164.549 137.48 166.229 136.28C169.269 134.08 170.669 131.72 170.669 124.88V115.64H160.549V111.64H175.069V117.76ZM174.589 130.72H181.069V121.72H175.069V124.56C175.069 127 174.909 129 174.589 130.72Z" fill="#58C1F4"/>
<path d="M230.467 124.2H201.107V115.6H225.547V113.32H201.107V110.08H230.027V118.64H205.587V121H230.467V124.2ZM233.107 129.84H198.227V126.48H233.107V129.84ZM230.947 146.72H200.867V137.84H225.947V135.64H200.867V132.28H230.427V141H205.347V143.32H230.947V146.72Z" fill="#58C1F4"/>
<path d="M259.103 112.64H268.023V116.36H245.463V112.64H254.543V108.76H259.103V112.64ZM277.903 132.96H273.543V128.36H268.263V124.6H273.543V120.52H268.263V116.72H273.543V109.64H277.903V132.96ZM266.703 125.36C266.703 129.52 263.063 132.4 256.823 132.4C250.583 132.4 246.943 129.52 246.943 125.36C246.943 121.16 250.663 118.24 256.823 118.24C262.983 118.24 266.703 121.16 266.703 125.36ZM251.223 125.36C251.223 127.44 253.103 128.96 256.823 128.96C260.543 128.96 262.423 127.44 262.423 125.36C262.423 123.24 260.463 121.72 256.823 121.72C253.183 121.72 251.223 123.24 251.223 125.36ZM263.823 133.84C273.623 133.84 278.623 136.08 278.623 140.48C278.623 144.84 273.623 147.04 263.823 147.04C253.983 147.04 248.983 144.84 248.983 140.48C248.983 136.08 253.983 133.84 263.823 133.84ZM263.823 143.36C270.703 143.36 274.023 142.44 274.023 140.48C274.023 138.48 270.703 137.52 263.823 137.52C256.903 137.52 253.623 138.48 253.623 140.48C253.623 142.44 256.943 143.36 263.823 143.36Z" fill="#58C1F4"/>
<path d="M315.52 130.4H311.04V119.52H302.96V115.68H311.04V109.64H315.52V130.4ZM294.64 121.36C293.72 122.88 292.24 124.48 290.44 125.84C288.12 127.56 285.72 128.88 283.32 129.92V125.24C285.28 124.36 287.32 123.2 288.76 121.88C291.72 119.28 292.4 117.44 292.4 113.76V110.12H296.88V113.76C296.88 117 297.44 118.96 299.76 121C301.56 122.64 303.72 123.8 305.84 124.76V129.24C303.2 128.2 300.68 126.84 298.68 125.36C297.2 124.24 295.6 122.8 294.64 121.36ZM300.72 131.44C310.8 131.44 315.88 134.16 315.88 139.28C315.88 144.4 310.8 147.04 300.72 147.04C290.64 147.04 285.56 144.4 285.56 139.28C285.56 134.16 290.64 131.44 300.72 131.44ZM300.72 143.2C307.84 143.2 311.28 141.88 311.28 139.28C311.28 136.68 307.88 135.28 300.72 135.28C293.56 135.28 290.16 136.68 290.16 139.28C290.16 141.88 293.56 143.2 300.72 143.2Z" fill="#58C1F4"/>
<path d="M334.138 112.04H343.337V115.6H320.177V112.04H329.578V108.48H334.138V112.04ZM351.177 109.64V117.32H356.258V121.28H351.177V128.6H346.818V109.64H351.177ZM342.098 123.2C342.098 126.8 338.418 129.2 331.978 129.2C325.538 129.2 321.897 126.8 321.897 123.2C321.897 119.64 325.618 117.24 331.978 117.24C338.338 117.24 342.098 119.64 342.098 123.2ZM326.138 123.2C326.138 124.8 328.138 125.88 331.978 125.88C335.858 125.88 337.858 124.8 337.858 123.2C337.858 121.6 335.778 120.56 331.978 120.56C328.178 120.56 326.138 121.6 326.138 123.2ZM351.258 140.32H327.818V143.2H352.138V146.68H323.337V137.08H346.777V134.4H323.337V131.04H351.258V140.32Z" fill="#58C1F4"/>
<path d="M378.693 124.36C376.053 125.88 372.013 127.64 368.613 128.52L368.573 124.08C371.773 123.12 375.253 121.52 377.733 120C381.093 117.92 382.253 115.88 382.253 112.48V110.04H386.893V112.48C386.893 115.96 388.013 117.72 390.853 119.64C392.773 120.92 396.933 122.96 400.533 124.16V128.48C396.973 127.48 392.333 125.44 389.773 123.92C387.333 122.36 385.533 120.84 384.573 119.32C383.653 120.88 381.653 122.64 378.693 124.36ZM367.133 131.52H402.013V135.48H386.813V146.32H382.333V135.48H367.133V131.52Z" fill="#58C1F4"/>
<path d="M442.329 109.64H446.809V129.96H442.329V109.64ZM425.729 129.2C419.409 129.2 414.969 125.16 414.969 119.52C414.969 113.92 419.409 109.92 425.729 109.92C432.089 109.92 436.529 113.92 436.529 119.52C436.529 125.16 432.089 129.2 425.729 129.2ZM425.729 113.68C421.969 113.68 419.369 116.08 419.369 119.52C419.369 123 421.969 125.44 425.729 125.44C429.489 125.44 432.129 123 432.129 119.52C432.129 116.08 429.489 113.68 425.729 113.68ZM444.689 139.28C445.809 140.36 447.089 141.32 448.649 141.88V146.56C446.849 145.96 444.889 144.8 443.649 143.76C442.409 142.72 441.209 141.4 440.529 140.2C439.769 141.56 438.649 142.88 437.449 143.92C436.049 145.12 434.289 146.2 433.009 146.72C431.569 146.16 429.889 145.12 428.849 144.24C427.369 143.04 426.329 141.76 425.489 140.4C424.969 141.52 423.769 142.84 422.329 144.12C421.249 145.04 419.409 146.24 417.329 147.04V142.2C419.049 141.48 420.249 140.6 421.249 139.56C422.649 138.04 423.249 136.32 423.249 134.04V131.92H427.649V134.04C427.649 136.24 428.129 137.76 429.489 139.32C430.449 140.52 431.809 141.64 433.009 142.24C434.209 141.6 435.569 140.48 436.529 139.28C437.889 137.76 438.289 136.2 438.289 134.04V131.92H442.689V134.04C442.689 136.16 443.289 137.84 444.689 139.28Z" fill="#58C1F4"/>
<path d="M483.867 124.24H454.547V110.04H459.027V120.36H483.867V124.24ZM486.467 131.92H451.587V127.96H486.467V131.92ZM484.387 146.04H454.347V134.48H458.947V142.16H484.387V146.04Z" fill="#58C1F4"/>
<path d="M256.207 171.44V177.76H241.047V184.92H255.007V191.24H241.047V203.64H233.767V171.44H256.207Z" fill="url(#paint0_linear_79_542)"/>
<path d="M290.567 203.64H282.727L280.687 197.68H268.327L266.207 203.64H258.327L270.567 171.44H278.727L290.567 203.64ZM273.447 183.32L270.527 191.52H278.567L275.727 183.32C275.287 182.08 275.087 181.04 274.607 179.84C274.167 181.04 273.887 182.04 273.447 183.32Z" fill="url(#paint1_linear_79_542)"/>
<path d="M316.244 203.64H293.884V171.44H301.164V197.04H316.244V203.64Z" fill="url(#paint2_linear_79_542)"/>
<path d="M342.846 203.64H320.486V171.44H327.766V197.04H342.846V203.64Z" fill="url(#paint3_linear_79_542)"/>
<path d="M354.367 190.28V197.04H370.527V203.64H347.087V171.44H370.087V177.76H354.367V183.96H368.887V190.28H354.367Z" fill="url(#paint4_linear_79_542)"/>
<path d="M373.182 171.44H400.223V177.52H390.342V203.64H383.062V177.52H373.182V171.44Z" fill="url(#paint5_linear_79_542)"/>
<path d="M402.479 171.44H429.519V177.52H419.639V203.64H412.359V177.52H402.479V171.44Z" fill="url(#paint6_linear_79_542)"/>
<path d="M440.656 190.28V197.04H456.816V203.64H433.376V171.44H456.376V177.76H440.656V183.96H455.176V190.28H440.656Z" fill="url(#paint7_linear_79_542)"/>
<path d="M486.912 203.6H478.912L473.032 192.84H468.352V203.64H461.072V171.44H473.992C481.552 171.44 486.352 175.76 486.352 181.92C486.352 186.28 483.992 189.76 480.152 191.56L486.912 203.6ZM473.072 177.64H468.352V186.6H473.072C477.072 186.6 478.992 184.8 478.992 181.96C478.992 179.28 477.152 177.64 473.072 177.64Z" fill="url(#paint8_linear_79_542)"/>
<path d="M104.156 222.096L89.8438 233.027L108.79 224.282L107.7 227.288L109.745 226.195L122.012 264.453L131.963 257.758L128.691 257.348L122.83 252.293L128.282 244.641L111.926 223.736L108.245 222.779L104.156 222.096Z" fill="#7A97FF"/>
<path d="M122.694 252.293L142.049 225.649L138.369 247.101L191.665 264.863L128.691 257.348L122.694 252.293Z" fill="#8BD9FF"/>
<path d="M105.655 174L108.109 222.779L111.926 223.736L123.921 239.039L131.145 233.983L105.655 174Z" fill="#8BD9FF"/>
<path d="M91.6157 233.983L89.8438 233.027L108.927 224.146L107.7 227.288L91.6157 233.983Z" fill="#8BD9FF"/>
<path d="M127.737 245.324L123.921 239.039L141.913 226.605L127.737 245.324Z" fill="#6580E1"/>
<path d="M118.605 260.491L106.746 227.698L109.745 226.195L120.786 260.491H118.605Z" fill="#6580E1"/>
<path d="M156.771 239.039L155.135 237.946L199.844 202.967L165.494 239.586L156.771 239.039Z" fill="#6580E1"/>
<path d="M130.736 234.393L105.655 174L148.592 216.084L149.001 232.89L141.777 226.742L130.736 234.393Z" fill="url(#paint9_linear_79_542)"/>
<path d="M138.097 247.374L141.777 226.742L156.771 239.039L138.097 247.374Z" fill="url(#paint10_linear_79_542)"/>
<path d="M156.771 239.039L138.097 247.374L191.665 265L168.766 239.722L156.771 239.039Z" fill="url(#paint11_linear_79_542)"/>
<path d="M122.558 252.429L141.777 226.742L138.233 247.237L191.665 265L128.555 257.348L122.558 252.429Z" fill="url(#paint12_linear_79_542)"/>
<path d="M130.872 234.257L105.655 174L108.109 222.779L111.926 223.736L123.921 239.039L130.872 234.257Z" fill="url(#paint13_linear_79_542)"/>
<path d="M34.8438 0L41.2077 23.636L64.8438 30L41.2077 36.364L34.8438 60L28.4798 36.364L4.84375 30L28.4798 23.636L34.8438 0Z" fill="#58C1F4"/>
<defs>
<linearGradient id="paint0_linear_79_542" x1="-2.15625" y1="130" x2="487.844" y2="130" gradientUnits="userSpaceOnUse">
<stop offset="0.211538" stop-color="#0CDFE6"/>
<stop offset="1" stop-color="#93AAFF"/>
</linearGradient>
<linearGradient id="paint1_linear_79_542" x1="-2.15625" y1="130" x2="487.844" y2="130" gradientUnits="userSpaceOnUse">
<stop offset="0.211538" stop-color="#0CDFE6"/>
<stop offset="1" stop-color="#93AAFF"/>
</linearGradient>
<linearGradient id="paint2_linear_79_542" x1="-2.15625" y1="130" x2="487.844" y2="130" gradientUnits="userSpaceOnUse">
<stop offset="0.211538" stop-color="#0CDFE6"/>
<stop offset="1" stop-color="#93AAFF"/>
</linearGradient>
<linearGradient id="paint3_linear_79_542" x1="-2.15625" y1="130" x2="487.844" y2="130" gradientUnits="userSpaceOnUse">
<stop offset="0.211538" stop-color="#0CDFE6"/>
<stop offset="1" stop-color="#93AAFF"/>
</linearGradient>
<linearGradient id="paint4_linear_79_542" x1="-2.15625" y1="130" x2="487.844" y2="130" gradientUnits="userSpaceOnUse">
<stop offset="0.211538" stop-color="#0CDFE6"/>
<stop offset="1" stop-color="#93AAFF"/>
</linearGradient>
<linearGradient id="paint5_linear_79_542" x1="-2.15625" y1="130" x2="487.844" y2="130" gradientUnits="userSpaceOnUse">
<stop offset="0.211538" stop-color="#0CDFE6"/>
<stop offset="1" stop-color="#93AAFF"/>
</linearGradient>
<linearGradient id="paint6_linear_79_542" x1="-2.15625" y1="130" x2="487.844" y2="130" gradientUnits="userSpaceOnUse">
<stop offset="0.211538" stop-color="#0CDFE6"/>
<stop offset="1" stop-color="#93AAFF"/>
</linearGradient>
<linearGradient id="paint7_linear_79_542" x1="-2.15625" y1="130" x2="487.844" y2="130" gradientUnits="userSpaceOnUse">
<stop offset="0.211538" stop-color="#0CDFE6"/>
<stop offset="1" stop-color="#93AAFF"/>
</linearGradient>
<linearGradient id="paint8_linear_79_542" x1="-2.15625" y1="130" x2="487.844" y2="130" gradientUnits="userSpaceOnUse">
<stop offset="0.211538" stop-color="#0CDFE6"/>
<stop offset="1" stop-color="#93AAFF"/>
</linearGradient>
<linearGradient id="paint9_linear_79_542" x1="154.317" y1="193.812" x2="116.395" y2="210.142" gradientUnits="userSpaceOnUse">
<stop stop-color="#86FBFF"/>
<stop offset="1" stop-color="#93AAFF"/>
</linearGradient>
<linearGradient id="paint10_linear_79_542" x1="170.81" y1="235.35" x2="135.23" y2="229.91" gradientUnits="userSpaceOnUse">
<stop stop-color="#86FBFF"/>
<stop offset="1" stop-color="#93AAFF"/>
</linearGradient>
<linearGradient id="paint11_linear_79_542" x1="184.304" y1="233.983" x2="137.977" y2="247.052" gradientUnits="userSpaceOnUse">
<stop stop-color="#86FBFF"/>
<stop offset="1" stop-color="#93AAFF"/>
</linearGradient>
<linearGradient id="paint12_linear_79_542" x1="153.908" y1="233.71" x2="117.879" y2="254.813" gradientUnits="userSpaceOnUse">
<stop stop-color="#86FBFF"/>
<stop offset="1" stop-color="#93AAFF"/>
</linearGradient>
<linearGradient id="paint13_linear_79_542" x1="118.264" y1="174.137" x2="123.537" y2="255.16" gradientUnits="userSpaceOnUse">
<stop stop-color="#86FBFF"/>
<stop offset="1" stop-color="#93AAFF"/>
</linearGradient>
</defs>
</svg>
