<svg xmlns="http://www.w3.org/2000/svg" width="80" height="63" fill="none" viewBox="0 0 80 63"><path fill="#ff9bbb" d="M42.917 10.262a5.54 5.54 0 0 0 2.639-4.715A5.55 5.55 0 0 0 40 0a5.55 5.55 0 0 0-5.556 5.547 5.52 5.52 0 0 0 2.64 4.715l-7.959 15.892c-1.264 2.523-4.542 3.244-6.75 1.483L10 17.75a5.54 5.54 0 0 0 1.111-3.328 5.55 5.55 0 0 0-5.555-5.547A5.55 5.55 0 0 0 0 14.422a5.55 5.55 0 0 0 5.556 5.547h.097L12 54.83a8.89 8.89 0 0 0 8.75 7.294h38.5A8.9 8.9 0 0 0 68 54.831l6.347-34.862h.098A5.55 5.55 0 0 0 80 14.422a5.55 5.55 0 0 0-5.555-5.547 5.55 5.55 0 0 0-5.556 5.547c0 1.248.417 2.399 1.111 3.328l-12.375 9.887c-2.208 1.761-5.486 1.04-6.75-1.483z"/></svg>