<svg xmlns="http://www.w3.org/2000/svg" width="142" height="48" fill="none" viewBox="0 0 142 48"><path fill="url(#a)" d="M0 0h24.13v24.13H0z" transform="matrix(.86651 .49916 -.86651 .49916 20.909 6.196)"/><path fill="#ff7a9d" d="m0 18.241 20.909 12.045v15.658L0 33.899z"/><path fill="#ec436f" d="M20.909 30.286 41.818 18.24V33.9l-20.91 12.045z"/><circle cx="4.147" cy="4.147" r="4.147" fill="url(#b)" transform="matrix(.86651 .49916 -.86651 .49916 20.881 2.056)"/><path fill="#ff7a9d" d="M15.799 6.196c0 .809.569 1.54 1.489 2.07v5.383c-.92-.53-1.489-1.262-1.489-2.07z"/><path fill="#ec436f" d="M17.288 8.267c1.984 1.143 5.202 1.143 7.187 0v5.382c-1.985 1.143-5.203 1.143-7.187 0z"/><path fill="#ec436f" d="M25.964 6.196c0 .809-.57 1.54-1.49 2.07v5.383c.92-.53 1.49-1.262 1.49-2.07z"/><circle cx="4.147" cy="4.147" r="4.147" fill="url(#c)" transform="matrix(.86651 .49916 -.86651 .49916 31.67 8.267)"/><path fill="#ff7a9d" d="M26.588 12.407c0 .809.569 1.54 1.489 2.07v5.383c-.92-.53-1.489-1.262-1.489-2.07z"/><path fill="#ec436f" d="M28.077 14.477c1.984 1.143 5.202 1.143 7.187 0v5.383c-1.985 1.143-5.203 1.143-7.187 0zM36.753 12.407c0 .809-.57 1.54-1.489 2.07v5.383c.92-.53 1.489-1.262 1.489-2.07z"/><circle cx="4.147" cy="4.147" r="4.147" fill="url(#d)" transform="matrix(.86651 .49916 -.86651 .49916 10.922 8.267)"/><path fill="#ff7a9d" d="M5.84 12.407c0 .809.569 1.54 1.488 2.07v5.383c-.92-.53-1.488-1.262-1.488-2.07z"/><path fill="#ec436f" d="M7.328 14.477c1.985 1.143 5.203 1.143 7.188 0v5.383c-1.985 1.143-5.203 1.143-7.188 0zM16.004 12.407c0 .809-.569 1.54-1.488 2.07v5.383c.92-.53 1.488-1.262 1.488-2.07z"/><circle cx="4.147" cy="4.147" r="4.147" fill="url(#e)" transform="matrix(.86651 .49916 -.86651 .49916 20.881 14.477)"/><path fill="#ff7a9d" d="M15.799 18.618c0 .808.569 1.54 1.489 2.07v5.382c-.92-.53-1.489-1.262-1.489-2.07z"/><path fill="#ec436f" d="M17.288 20.688c1.984 1.143 5.202 1.143 7.187 0v5.382c-1.985 1.143-5.203 1.143-7.187 0z"/><path fill="#ec436f" d="M25.964 18.618c0 .808-.57 1.54-1.49 2.07v5.382c.92-.53 1.49-1.262 1.49-2.07z"/><path fill="#ff7a9d" d="M63.746 36q-.19 0-.19-.19l.076-26.106q0-.152.152-.152h12.16q.19 0 .19.152v4.294q0 .152-.152.152h-7.79v5.89h7.79q.153 0 .152.19l.038 4.294q0 .152-.19.152h-7.79V35.81q0 .19-.19.19zm12.286-.19 4.712-26.106q.038-.152.19-.152h5.51q.152 0 .19.152l4.522 26.106q.038.19-.152.19h-4.218q-.152 0-.19-.19l-.418-2.774H81.01l-.418 2.774q-.038.19-.19.19h-4.218q-.152 0-.152-.19m5.738-6.84h3.648L83.86 18.292l-.228-1.406-.152 1.406zM93.693 36q-.153 0-.152-.19l.076-26.106q0-.152.152-.152h7.296q2.166 0 3.876 1.064a7.55 7.55 0 0 1 2.698 2.736 7.3 7.3 0 0 1 .988 3.724 6.3 6.3 0 0 1-.76 3.04q-.723 1.406-1.748 2.28a7.9 7.9 0 0 1 1.71 2.546 7.8 7.8 0 0 1 .608 3.04q0 2.205-1.064 4.028a8.2 8.2 0 0 1-2.888 2.926q-1.787 1.065-3.99 1.064zm4.484-15.96h2.888q1.33 0 2.128-.912.836-.95.836-2.052 0-1.215-.874-2.09-.875-.912-2.09-.912h-2.888zm-.038 11.324h2.356q1.368 0 2.356-.988.987-1.026.988-2.394 0-1.368-.988-2.356t-2.356-.988h-2.318zM111.32 36q-.153 0-.152-.19l.038-26.068q0-.19.19-.19h4.218q.19 0 .19.19l-.038 21.584h7.828q.19 0 .19.19v4.294q0 .19-.19.19zm21.462.38a7.2 7.2 0 0 1-3.762-1.026 8.3 8.3 0 0 1-2.698-2.774q-1.026-1.748-1.026-3.838l.038-12.046q0-2.09.988-3.8a7.86 7.86 0 0 1 2.736-2.736 7.1 7.1 0 0 1 3.724-1.026q2.052 0 3.724 1.026a7.66 7.66 0 0 1 2.66 2.736q1.026 1.71 1.026 3.8l.038 12.046q0 2.09-1.026 3.838a7.86 7.86 0 0 1-2.698 2.774q-1.672 1.026-3.724 1.026m0-4.598q1.14 0 1.976-.912.873-.95.874-2.128l-.038-12.046q0-1.254-.798-2.128-.799-.874-2.014-.874-1.179 0-2.014.874-.837.836-.836 2.128v12.046q0 1.254.836 2.166.835.874 2.014.874"/><defs><linearGradient id="a" x1="12.065" x2="12.065" y1="0" y2="24.13" gradientUnits="userSpaceOnUse"><stop stop-color="#ff9bbb"/><stop offset="1" stop-color="#ff507f"/></linearGradient><linearGradient id="b" x1="4.147" x2="4.147" y1="0" y2="8.295" gradientUnits="userSpaceOnUse"><stop stop-color="#ff9bbb"/><stop offset="1" stop-color="#ff507f"/></linearGradient><linearGradient id="c" x1="4.147" x2="4.147" y1="0" y2="8.295" gradientUnits="userSpaceOnUse"><stop stop-color="#ff9bbb"/><stop offset="1" stop-color="#ff507f"/></linearGradient><linearGradient id="d" x1="4.147" x2="4.147" y1="0" y2="8.295" gradientUnits="userSpaceOnUse"><stop stop-color="#ff9bbb"/><stop offset="1" stop-color="#ff507f"/></linearGradient><linearGradient id="e" x1="4.147" x2="4.147" y1="0" y2="8.295" gradientUnits="userSpaceOnUse"><stop stop-color="#ff9bbb"/><stop offset="1" stop-color="#ff507f"/></linearGradient></defs></svg>