<svg xmlns="http://www.w3.org/2000/svg" width="58" height="58" fill="none" viewBox="0 0 58 58"><rect width="57" height="57" x=".5" y=".5" stroke="#a7a7a7" rx="9.5"/><path fill="#fff" d="M29 13c-8.836 0-16 7.164-16 16 0 7.497 5.163 13.77 12.123 15.507a2.3 2.3 0 0 1-.123-.778v-2.734h-2.01c-1.095 0-2.069-.471-2.54-1.346-.525-.972-.615-2.458-1.914-3.368-.385-.302-.092-.648.352-.601.82.232 1.5.795 2.14 1.63.637.835.937 1.025 2.128 1.025.577 0 1.441-.034 2.255-.162.437-1.11 1.193-2.133 2.117-2.616-5.328-.548-7.87-3.198-7.87-6.797 0-1.55.66-3.048 1.78-4.31-.367-1.254-.83-3.81.142-4.783 2.397 0 3.847 1.554 4.195 1.974A12 12 0 0 1 29.66 21c1.381 0 2.699.232 3.896.644.344-.417 1.795-1.977 4.197-1.977.976.974.508 3.541.136 4.792 1.115 1.26 1.771 2.754 1.771 4.301 0 3.596-2.539 6.245-7.859 6.796 1.464.764 2.532 2.91 2.532 4.528v3.645c0 .139-.03.239-.046.358C40.52 41.9 45 35.98 45 29c0-8.836-7.164-16-16-16"/></svg>