<svg xmlns="http://www.w3.org/2000/svg" width="58" height="58" fill="none" viewBox="0 0 58 58"><rect width="57" height="57" x=".5" y=".5" stroke="#a7a7a7" rx="9.5"/><path fill="#fff" d="M43.126 20.454a.88.88 0 0 0-.597-.238c-.015 0-.036.007-.058.007l-21.499 1.383a.88.88 0 0 0-.814.87v20.7a.87.87 0 0 0 .93.872l21.498-1.39a.87.87 0 0 0 .814-.87V21.093a.86.86 0 0 0-.274-.64m-4.687 5.608c-.432.137-.569.144-.569.144V38.62c-.734.396-1.339.583-1.972.583-.77 0-1.21-.172-1.8-1.08-1.253-1.937-5.336-8.503-5.336-8.503v8.244l1.606.339s-.043.936-1.447 1.044c-1.231.093-3.917.23-3.917.23 0-.338.072-.806.605-.943.252-.065 1.008-.267 1.008-.267V27.142h-1.613c0-.741.216-1.317.994-1.375l4.168-.238 5.566 8.583v-7.64l-1.613-.136c0-.67.648-1.08 1.203-1.138l3.628-.201c0 .468-.021.907-.51 1.065M14.586 17.15l4.132 4.133V42.55l-3.686-4.435a2.4 2.4 0 0 1-.446-1.411zm27.172 1.706-20.923 1.318a2.47 2.47 0 0 1-1.908-.713l-3.434-3.442 19.577-1.36a2.4 2.4 0 0 1 1.641.475z"/></svg>